<?xml version="1.0" encoding="UTF-8"?>
<svg id="Layer_2" data-name="Layer 2" xmlns="http://www.w3.org/2000/svg" viewBox="0 0 94.3 76.26">
  <defs>
    <style>
      .cls-1 {
        fill: #fff;
      }
    </style>
  </defs>
  <g id="Layer_1-2" data-name="Layer 1">
    <path class="cls-1" d="m48.95,56.35h-22.16c-1.54,0-2.84,1.3-2.84,2.84v14.24l4.85-2.01c-6.99-7.25-13.98-14.51-20.97-21.76-1-1.04-2-2.07-3-3.11-2.54-2.64-6.56,1.38-4.02,4.02,6.99,7.25,13.98,14.51,20.97,21.76,1,1.04,2,2.07,3,3.11,1.72,1.78,4.85.42,4.85-2.01v-14.24l-2.84,2.84h22.16c3.66,0,3.66-5.68,0-5.68h0Z"/>
    <path class="cls-1" d="m4.83,50.57c6.97-7.35,13.94-14.7,20.91-22.05.99-1.04,1.97-2.08,2.96-3.12l-4.85-2.01v14.64c0,1.54,1.3,2.84,2.84,2.84h41.02l-2.84-2.84v13.94c0,2.44,3.12,3.78,4.85,2.01,6.95-7.12,13.89-14.24,20.84-21.36.98-1,1.96-2,2.93-3.01,1.09-1.12,1.08-2.9,0-4.02-6.95-7.25-13.91-14.49-20.86-21.74-.97-1.01-1.94-2.02-2.91-3.03-1.72-1.79-4.85-.42-4.85,2.01v14.64l2.84-2.84c-7.09-.07-14.17-.13-21.26-.2-3.66-.03-3.66,5.65,0,5.68,7.09.07,14.17.13,21.26.2,1.54.01,2.84-1.31,2.84-2.84V2.83l-4.85,2.01c6.95,7.25,13.91,14.49,20.86,21.74.97,1.01,1.94,2.02,2.91,3.03v-4.02c-6.95,7.12-13.89,14.24-20.84,21.36-.98,1-1.96,2-2.93,3.01l4.85,2.01v-13.94c0-1.54-1.3-2.84-2.84-2.84H26.69l2.84,2.84v-14.64c0-2.41-3.14-3.82-4.85-2.01-6.97,7.35-13.94,14.7-20.91,22.05-.99,1.04-1.97,2.08-2.96,3.12-2.52,2.65,1.5,6.68,4.02,4.02h0Z"/>
  </g>
</svg>