<?xml version="1.0" encoding="UTF-8"?>
<svg id="Layer_2" data-name="Layer 2" xmlns="http://www.w3.org/2000/svg" viewBox="0 0 233.16 347.6">
  <defs>
    <style>
      .cls-1 {
        fill: #30b564;
      }

      .cls-1, .cls-2, .cls-3, .cls-4, .cls-5, .cls-6, .cls-7, .cls-8, .cls-9 {
        stroke-width: 0px;
      }

      .cls-2 {
        fill: #267156;
      }

      .cls-3 {
        fill: none;
      }

      .cls-4 {
        fill: #73fa9f;
      }

      .cls-5 {
        fill: #c6fdca;
      }

      .cls-6 {
        fill: #9cfab4;
      }

      .cls-7 {
        fill: #94f0ac;
      }

      .cls-8 {
        fill: #32a574;
      }

      .cls-9 {
        fill: #48e581;
      }
    </style>
  </defs>
  <g id="Layer_1-2" data-name="Layer 1">
    <polygon class="cls-5" points="191.26 106.28 153.38 93.68 116.03 81.24 115.49 0 191.26 106.28"/>
    <polygon class="cls-6" points="116.03 81.24 79.68 93.64 40.8 106.89 115.49 0 116.03 81.24"/>
    <polygon class="cls-8" points="116.21 163.31 40.8 106.89 79.68 93.64 116.21 163.31"/>
    <polygon class="cls-9" points="191.26 106.28 116.21 163.31 153.38 93.68 191.26 106.28"/>
    <polygon class="cls-4" points="153.38 93.67 116.21 163.31 79.67 93.64 116.03 81.25 153.38 93.67"/>
    <polygon class="cls-7" points="232.66 163.32 116.62 256.03 116.42 255.88 0 164.25 .48 163.57 19.21 137.04 116.62 208.73 213.82 136.93 232.65 163.31 232.66 163.32"/>
    <polygon class="cls-1" points="233.16 164.02 116.03 347.6 116.42 255.88 116.42 255.87 116.62 256.03 232.65 163.31 232.66 163.32 233.16 164.02"/>
    <polygon class="cls-2" points="116.42 255.87 116.42 255.88 116.03 347.6 0 164.25 .48 163.57 116.42 255.87"/>
    <polyline class="cls-3" points="233.16 164.02 232.66 163.32 232.65 163.31 213.82 136.93"/>
  </g>
</svg>